<svg xmlns="http://www.w3.org/2000/svg" width="28" height="28" viewBox="0 0 28 28" fill="none">
  <path d="M14 7.51367V11.3987" stroke="#292D32" stroke-width="1.5" stroke-miterlimit="10" stroke-linecap="round"/>
  <path d="M14.0208 2.3335C9.72744 2.3335 6.25077 5.81016 6.25077 10.1035V12.5535C6.25077 13.3468 5.92411 14.5368 5.51577 15.2135L4.03411 17.6868C3.12411 19.2152 3.75411 20.9185 5.43411 21.4785C11.0108 23.3335 17.0424 23.3335 22.6191 21.4785C24.1941 20.9535 24.8708 19.1102 24.0191 17.6868L22.5374 15.2135C22.1291 14.5368 21.8024 13.3352 21.8024 12.5535V10.1035C21.7908 5.8335 18.2908 2.3335 14.0208 2.3335Z" stroke="#292D32" stroke-width="1.5" stroke-miterlimit="10" stroke-linecap="round"/>
  <path d="M17.8872 21.957C17.8872 24.092 16.1372 25.842 14.0022 25.842C12.9405 25.842 11.9605 25.3987 11.2605 24.6987C10.5605 23.9987 10.1172 23.0187 10.1172 21.957" stroke="#292D32" stroke-width="1.5" stroke-miterlimit="10"/>
</svg>