<svg xmlns="http://www.w3.org/2000/svg" width="24" height="24" viewBox="0 0 24 24" fill="none">
  <g clip-path="url(#clip0_4051_11170)">
    <path fill-rule="evenodd" clip-rule="evenodd" d="M16.9135 1.34733C27.4331 -0.173144 20.7006 8.45779 17.4278 10.8726C19.672 12.5273 21.9629 14.8527 22.9448 17.4912C24.7682 22.321 20.2798 23.0365 16.9135 21.829C13.2199 20.5769 9.94709 17.8937 7.79645 14.7633C7.18865 14.7633 6.53409 14.6738 5.92629 14.495C7.14189 17.8043 7.65619 21.203 7.32891 23.9756C7.32891 18.3856 4.57042 12.8403 0.596324 8.2342C-0.806288 6.62428 0.643092 5.41684 1.90544 6.98205C2.75523 8.11558 3.53576 9.29518 4.24314 10.5149C5.59901 5.95348 12.3316 1.97341 16.9135 1.34733ZM15.4176 9.57566C17.4746 8.36822 23.7397 1.88383 17.8955 2.46519C14.5292 2.82295 10.4616 5.81918 8.77845 7.74214C11.1161 7.47382 13.5006 8.45766 15.4176 9.57566ZM8.73164 9.17336C10.3212 9.03921 12.0512 9.84416 13.3603 10.6491C12.0979 11.2305 10.6953 11.5882 9.24593 11.6777C7.09526 11.6777 6.67447 9.35224 8.73164 9.17336ZM9.61962 14.5843C11.4898 16.5966 14.0613 18.5643 16.8198 19.2799C18.4094 19.6824 20.186 19.5035 19.5315 17.3122C18.8769 15.2998 17.1938 13.511 15.5574 12.1694C15.0898 12.4825 14.5755 12.7954 14.0613 13.0191C12.6587 13.7793 11.1625 14.316 9.61962 14.5843Z" fill="#F5A623"/>
  </g>
  <defs>
    <clipPath id="clip0_4051_11170">
      <rect width="24" height="24" fill="white"/>
    </clipPath>
  </defs>
</svg>