
<svg width="132" height="132" viewBox="0 0 132 132" fill="none" xmlns="http://www.w3.org/2000/svg">
<g clip-path="url(#clip0_665_13996)">
<rect width="132" height="132" rx="66" fill="#00B96B" fill-opacity="0.12"/>
<path d="M65.9993 124.333C98.216 124.333 124.333 98.2164 124.333 65.9998C124.333 33.7832 98.216 7.6665 65.9993 7.6665C33.7827 7.6665 7.66602 33.7832 7.66602 65.9998C7.66602 98.2164 33.7827 124.333 65.9993 124.333Z" fill="#00B96B"/>
<path d="M57.7164 86.8832C56.5497 86.8832 55.4414 86.4165 54.6247 85.5998L38.1164 69.0915C36.4247 67.3998 36.4247 64.5998 38.1164 62.9082C39.8081 61.2165 42.6081 61.2165 44.2997 62.9082L57.7164 76.3248L87.6997 46.3415C89.3914 44.6498 92.1914 44.6498 93.8831 46.3415C95.5748 48.0332 95.5748 50.8332 93.8831 52.5248L60.8081 85.5998C59.9914 86.4165 58.8831 86.8832 57.7164 86.8832Z" fill="#FFFFFE"/>
</g>
<defs>
<clipPath id="clip0_665_13996">
<rect width="132" height="132" rx="66" fill="white"/>
</clipPath>
</defs>
</svg>
