  <svg xmlns="http://www.w3.org/2000/svg" width="24" height="24" viewBox="0 0 24 24" fill="none">
  <path d="M13.4523 15.5955C13.4171 15.5606 13.3695 15.541 13.3199 15.541C13.2703 15.541 13.2227 15.5606 13.1875 15.5955L10.4641 18.3189C9.20313 19.5799 7.075 19.7135 5.68281 18.3189C4.28828 16.9244 4.42188 14.7986 5.68281 13.5377L8.40625 10.8143C8.47891 10.7416 8.47891 10.6221 8.40625 10.5494L7.47344 9.6166C7.4382 9.58171 7.39061 9.56213 7.34102 9.56213C7.29142 9.56213 7.24383 9.58171 7.20859 9.6166L4.48516 12.34C2.50234 14.3229 2.50234 17.5314 4.48516 19.5119C6.46797 21.4924 9.67656 21.4947 11.657 19.5119L14.3805 16.7885C14.4531 16.7158 14.4531 16.5963 14.3805 16.5236L13.4523 15.5955ZM19.5133 4.48613C17.5305 2.50332 14.3219 2.50332 12.3414 4.48613L9.61563 7.20957C9.58073 7.24481 9.56116 7.2924 9.56116 7.34199C9.56116 7.39159 9.58073 7.43917 9.61563 7.47441L10.5461 8.40488C10.6188 8.47754 10.7383 8.47754 10.8109 8.40488L13.5344 5.68145C14.7953 4.42051 16.9234 4.28691 18.3156 5.68145C19.7102 7.07598 19.5766 9.20176 18.3156 10.4627L15.5922 13.1861C15.5573 13.2214 15.5377 13.269 15.5377 13.3186C15.5377 13.3681 15.5573 13.4157 15.5922 13.451L16.525 14.3838C16.5977 14.4564 16.7172 14.4564 16.7898 14.3838L19.5133 11.6604C21.4937 9.67754 21.4937 6.46895 19.5133 4.48613ZM14.2984 8.72598C14.2632 8.69108 14.2156 8.67151 14.166 8.67151C14.1164 8.67151 14.0688 8.69108 14.0336 8.72598L8.725 14.0322C8.69011 14.0675 8.67053 14.1151 8.67053 14.1646C8.67053 14.2142 8.69011 14.2618 8.725 14.2971L9.65313 15.2252C9.72578 15.2979 9.84531 15.2979 9.91797 15.2252L15.2242 9.91895C15.2969 9.84629 15.2969 9.72676 15.2242 9.6541L14.2984 8.72598Z" fill="#0D236E"/>
</svg>