<svg xmlns="http://www.w3.org/2000/svg" width="40" height="40" viewBox="0 0 40 40" fill="none">
  <path opacity="0.4" d="M31.6668 15.0002C31.6668 17.4168 30.9502 19.6335 29.7168 21.4835C27.9168 24.1502 25.0668 26.0335 21.7502 26.5168C21.1835 26.6168 20.6002 26.6668 20.0002 26.6668C19.4002 26.6668 18.8168 26.6168 18.2502 26.5168C14.9335 26.0335 12.0835 24.1502 10.2835 21.4835C9.05016 19.6335 8.3335 17.4168 8.3335 15.0002C8.3335 8.55016 13.5502 3.3335 20.0002 3.3335C26.4502 3.3335 31.6668 8.55016 31.6668 15.0002Z" fill="#0D236E"/>
  <path d="M35.4121 30.7838L32.6621 31.4338C32.0454 31.5838 31.5621 32.0505 31.4287 32.6672L30.8454 35.1172C30.5287 36.4505 28.8287 36.8505 27.9454 35.8005L19.9954 26.6672L12.0454 35.8171C11.1621 36.8671 9.46208 36.4671 9.14541 35.1338L8.56208 32.6838C8.41208 32.0671 7.92874 31.5838 7.32874 31.4505L4.57874 30.8005C3.31208 30.5005 2.86208 28.9171 3.77874 28.0005L10.2787 21.5005C12.0787 24.1672 14.9287 26.0505 18.2454 26.5339C18.8121 26.6339 19.3954 26.6838 19.9954 26.6838C20.5954 26.6838 21.1787 26.6339 21.7454 26.5339C25.0621 26.0505 27.9121 24.1672 29.7121 21.5005L36.2121 28.0005C37.1287 28.9005 36.6787 30.4838 35.4121 30.7838Z" fill="#0D236E"/>
  <path d="M20.9697 9.9665L21.953 11.9332C22.0864 12.1998 22.4364 12.4665 22.753 12.5165L24.5364 12.8165C25.6697 12.9998 25.9364 13.8332 25.1197 14.6498L23.7364 16.0331C23.503 16.2665 23.3697 16.7165 23.453 17.0498L23.853 18.7665C24.1697 20.1165 23.453 20.6498 22.253 19.9331L20.5864 18.9498C20.2864 18.7665 19.7864 18.7665 19.4864 18.9498L17.8197 19.9331C16.6197 20.6331 15.903 20.1165 16.2197 18.7665L16.6197 17.0498C16.6864 16.7332 16.5697 16.2665 16.3364 16.0331L14.953 14.6498C14.1364 13.8332 14.403 13.0165 15.5364 12.8165L17.3197 12.5165C17.6197 12.4665 17.9697 12.1998 18.103 11.9332L19.0864 9.9665C19.5697 8.89984 20.4364 8.89984 20.9697 9.9665Z" fill="#0D236E"/>
</svg>