<svg xmlns="http://www.w3.org/2000/svg" width="24" height="28" viewBox="0 0 24 28" fill="none">
  <g clip-path="url(#clip0_4051_2278)">
    <path d="M20.3601 2.20348C19.0538 0.71452 16.6924 0.0761719 13.6715 0.0761719H4.904C4.28594 0.0761719 3.76075 0.525669 3.66398 1.13514L0.0133831 24.2881C-0.0591918 24.7446 0.294319 25.1582 0.757082 25.1582H6.16977L7.52919 16.5359L7.48705 16.8059C7.58381 16.1964 8.1051 15.7469 8.72238 15.7469H11.2945C16.3474 15.7469 20.3039 13.6945 21.4597 7.75742C21.494 7.58183 21.5237 7.41093 21.5494 7.24393C21.4035 7.16667 21.4035 7.16667 21.5494 7.24393C21.8936 5.04951 21.5471 3.55587 20.3601 2.20348Z" fill="#27346A"/>
    <path d="M9.60031 6.45341C9.74468 6.38473 9.90543 6.3465 10.074 6.3465H16.9475C17.7615 6.3465 18.5208 6.39956 19.2145 6.51115C19.4135 6.54315 19.6063 6.57983 19.7936 6.62197C19.9809 6.66333 20.1627 6.71015 20.3391 6.76166C20.4272 6.78741 20.5139 6.81394 20.5989 6.84203C20.94 6.95597 21.2576 7.08863 21.5494 7.24393C21.8936 5.04873 21.5471 3.55587 20.3601 2.20348C19.053 0.71452 16.6924 0.0761719 13.6715 0.0761719H4.90322C4.28594 0.0761719 3.76075 0.525669 3.66398 1.13514L0.0133837 24.2873C-0.0591913 24.7446 0.294319 25.1575 0.756302 25.1575H6.16977L8.99005 7.2728C9.0478 6.90603 9.28347 6.60558 9.60031 6.45341Z" fill="#27346A"/>
    <path d="M21.4591 7.75763C20.3033 13.694 16.3468 15.7471 11.2939 15.7471H8.72097C8.10369 15.7471 7.5824 16.1966 7.48641 16.8061L5.79534 27.5269C5.73213 27.9265 6.04116 28.2885 6.44539 28.2885H11.0083C11.5483 28.2885 12.0079 27.8952 12.0922 27.3622L12.1367 27.1297L12.9967 21.6795L13.0521 21.3783C13.1363 20.8453 13.596 20.452 14.136 20.452H14.8188C19.2389 20.452 22.6998 18.6564 23.7112 13.463C24.1334 11.2927 23.9149 9.4807 22.7982 8.20791C22.4595 7.8224 22.0389 7.50401 21.5488 7.24414C21.5223 7.41192 21.4934 7.58204 21.4591 7.75763Z" fill="#2790C3"/>
    <path d="M20.3403 6.76184C20.1639 6.71034 19.9821 6.66351 19.7948 6.62215C19.6075 6.58079 19.414 6.54412 19.2158 6.51212C18.5212 6.39975 17.7627 6.34668 16.948 6.34668H10.0752C9.90589 6.34668 9.74513 6.38492 9.60154 6.45437C9.28393 6.60654 9.04903 6.90621 8.99129 7.27377L7.53042 16.5361L7.48828 16.8061C7.58427 16.1966 8.10556 15.7471 8.72284 15.7471H11.2957C16.3487 15.7471 20.3052 13.6947 21.4609 7.7576C21.4953 7.58202 21.5241 7.41189 21.5507 7.24411C21.258 7.0896 20.9412 6.95615 20.6002 6.843C20.5151 6.81491 20.4285 6.78759 20.3403 6.76184Z" fill="#1F264F"/>
  </g>
  <defs>
    <clipPath id="clip0_4051_2278">
      <rect width="24" height="28" fill="white"/>
    </clipPath>
  </defs>
</svg>