<svg xmlns="http://www.w3.org/2000/svg" width="24" height="24" viewBox="0 0 24 24" fill="none">
  <g clip-path="url(#clip0_4051_1423)">
    <path d="M0 0H24V24H0V0Z" fill="url(#paint0_linear_4051_1423)"/>
    <g filter="url(#filter0_d_4051_1423)">
      <path d="M13.0958 10.4062C11.8838 9.95806 11.2197 9.60931 11.2197 9.06153C11.2197 8.59653 11.6016 8.33103 12.2823 8.33103C13.5274 8.33103 14.8057 8.81253 15.6856 9.24406L16.1836 6.17281C15.4863 5.84075 14.0586 5.29297 12.083 5.29297C10.6885 5.29297 9.52641 5.65812 8.69634 6.33884C7.83291 7.05266 7.38478 8.08203 7.38478 9.32712C7.38478 11.5849 8.76272 12.5478 11.0039 13.3613C12.4482 13.876 12.9297 14.2412 12.9297 14.8056C12.9297 15.3535 12.4647 15.6688 11.6182 15.6688C10.5722 15.6688 8.84578 15.1543 7.71675 14.4902L7.21875 17.5947C8.18156 18.1425 9.97453 18.7069 11.8341 18.7069C13.3116 18.7069 14.5401 18.3583 15.3701 17.6943C16.2997 16.9638 16.7812 15.8848 16.7812 14.4902C16.7812 12.1826 15.3701 11.2197 13.0957 10.4063L13.0958 10.4062Z" fill="white"/>
    </g>
  </g>
  <defs>
    <filter id="filter0_d_4051_1423" x="-41.6094" y="-43.5352" width="146.281" height="150.133" filterUnits="userSpaceOnUse" color-interpolation-filters="sRGB">
      <feFlood flood-opacity="0" result="BackgroundImageFix"/>
      <feColorMatrix in="SourceAlpha" type="matrix" values="0 0 0 0 0 0 0 0 0 0 0 0 0 0 0 0 0 0 127 0" result="hardAlpha"/>
      <feOffset dx="19.5312" dy="19.5312"/>
      <feGaussianBlur stdDeviation="34.1797"/>
      <feColorMatrix type="matrix" values="0 0 0 0 0 0 0 0 0 0 0 0 0 0 0 0 0 0 0.185125 0"/>
      <feBlend mode="normal" in2="BackgroundImageFix" result="effect1_dropShadow_4051_1423"/>
      <feBlend mode="normal" in="SourceGraphic" in2="effect1_dropShadow_4051_1423" result="shape"/>
    </filter>
    <linearGradient id="paint0_linear_4051_1423" x1="2400" y1="1400.54" x2="0" y2="0" gradientUnits="userSpaceOnUse">
      <stop stop-color="#2697D4"/>
      <stop offset="0.5" stop-color="#207BCB"/>
      <stop offset="1" stop-color="#2285CE"/>
    </linearGradient>
    <clipPath id="clip0_4051_1423">
      <rect width="24" height="24" fill="white"/>
    </clipPath>
  </defs>
</svg>